<svg xmlns="http://www.w3.org/2000/svg" viewBox="0 0 592.01 159.58"><defs><style>.cls-1{fill:#a294c6;}.cls-2{fill:#fff;}</style></defs><g id="Capa_2" data-name="Capa 2"><g id="Capa_1-2" data-name="Capa 1"><path class="cls-1" d="M591.25,47.19a19.55,19.55,0,0,0-3.68-7l-.18-.22-.18-.23-.18-.22-.18-.23-.18-.22-.18-.23-.18-.23-.18-.22-.18-.23-.18-.22-.19-.23c-.06-.07-.11-.15-.18-.22l-.18-.23L585,37l-.18-.23-.18-.22-.18-.23-.18-.22-.18-.23-.18-.23A19.8,19.8,0,0,0,577,30.13c0-.56,0-1.11,0-1.66a19.45,19.45,0,0,0-4.21-12.66l-.18-.23-.18-.23-.18-.22-.18-.23-.18-.22-.18-.23-.18-.22-.18-.23-.18-.22-.18-.23-.18-.22-.18-.23-.18-.23-.18-.22-.18-.23L570,12.2,569.8,12l-.18-.22-.18-.23-.18-.22a19.85,19.85,0,0,0-15.51-7.77A20.72,20.72,0,0,0,544.12,6,19.69,19.69,0,0,0,530,0a19.91,19.91,0,0,0-3.37.29,19.68,19.68,0,0,0-14.59,27.43q1.34,3,2.68,6a41.76,41.76,0,0,0-6.77,4,19.8,19.8,0,0,0-10.4-7,21.09,21.09,0,0,0-5.71-.78,22.78,22.78,0,0,0-7,1.11,25,25,0,0,0-2.41.93,31.36,31.36,0,0,0-6.34-.61c-1.11,0-2.28.05-3.48.15a30.61,30.61,0,0,0-15.26,5.7,23.18,23.18,0,0,0-4.72-2.52,21.92,21.92,0,0,0-8.09-1.55c-.45,0-.9,0-1.36.05a27.14,27.14,0,0,0-11.64,2.74,31,31,0,0,0-5.41,3.42,23.54,23.54,0,0,0-8.24-3,31.55,31.55,0,0,0-5.17-.42c-.94,0-1.9,0-2.86.12a26.35,26.35,0,0,0-13.49,5.14,24.38,24.38,0,0,0-5.07,5A30.69,30.69,0,0,0,382,41.82a33.36,33.36,0,0,0-8.87-1.18c-1.05,0-2.12,0-3.18.14a35.14,35.14,0,0,0-8.43,1.8,27.45,27.45,0,0,0-4.65-8.24l-.18-.23-.18-.23-.18-.22-.18-.23c-.06-.07-.12-.15-.19-.22l-.18-.23c-.06-.07-.11-.15-.18-.22l-.18-.23-.18-.22-.18-.23-.18-.22-.18-.23-.18-.23-.18-.22-.18-.23-.18-.22-.18-.23-.18-.22-.18-.23-.18-.22a28,28,0,0,0-4.07-4.14,28.82,28.82,0,0,0-10-5.3,30.43,30.43,0,0,0-8.74-1.26c-.95,0-1.92.05-2.89.13a39.52,39.52,0,0,0-13.22,3.64c-.65.3-1.28.62-1.9,1a26.62,26.62,0,0,0-11.19-2.26h-.61a26.44,26.44,0,0,0-8.89,1.57c-.76.28-1.5.58-2.2.9a23.13,23.13,0,0,0-6.37-1.1l-.76,0A21.56,21.56,0,0,0,271.35,26a20.09,20.09,0,0,0-9.15,12.53L257.69,56a31.13,31.13,0,0,0-9.77-4.1,36,36,0,0,0-8.29-1c-1.07,0-2.15,0-3.22.14a37.44,37.44,0,0,0-5.16.82,18.14,18.14,0,0,0-.43-1.91,20.25,20.25,0,0,0-3.81-7.5c0-.08-.12-.15-.18-.23l-.18-.22-.18-.23-.18-.22-.18-.23-.18-.22-.18-.23-.18-.22-.18-.23-.18-.22L225,40l-.18-.23-.18-.22-.18-.23-.18-.22-.18-.23-.18-.22-.18-.23-.18-.22-.18-.23a20.49,20.49,0,0,0-1.94-2.13,19.88,19.88,0,0,0-9.42-4.94,19.58,19.58,0,0,0-11.1.9,21.11,21.11,0,0,0-8.76,6.48,24.69,24.69,0,0,0-4.8,10.23l-2,8-1,0c-.82,0-1.67,0-2.5.11l-1,.12c-.4-.92-.83-1.82-1.32-2.7a29.73,29.73,0,0,0-2.75-4l-.18-.23-.18-.22-.18-.23-.18-.22-.18-.23-.18-.22-.18-.23-.18-.22-.18-.23-.18-.22-.18-.23-.18-.22-.18-.23-.18-.22-.18-.23-.18-.23-.18-.22-.18-.23-.18-.22-.18-.23a30.29,30.29,0,0,0-5.88-5.58A33.41,33.41,0,0,0,156,34.69a37,37,0,0,0-9.23-1.14c-1.16,0-2.34.05-3.53.15a40.09,40.09,0,0,0-10.73,2.47,39.3,39.3,0,0,0-10,5.58,37.17,37.17,0,0,0-13.51,21l-.15.58-.07.34A34.76,34.76,0,0,0,108,73.91a30.61,30.61,0,0,0,.45,3.21A36.3,36.3,0,0,0,100,87.84a40.69,40.69,0,0,0-3.92,11.9A45.63,45.63,0,0,0,95.63,111a32.93,32.93,0,0,0,4.48,14.12,34,34,0,0,0,3.16,4.47l.18.22.18.23.18.22.18.23.18.22.18.23.18.22.18.23.18.23.18.22.18.23.18.22.18.23.18.22.18.23c.07.07.12.15.18.22l.18.23c.07.07.12.15.18.22s.12.16.19.23.11.15.18.22a34.85,34.85,0,0,0,6.88,6.38,40.93,40.93,0,0,0,13.28,6A48.67,48.67,0,0,0,139.35,148c1,0,2.05,0,3.14-.09a59,59,0,0,0,24.87-7.1,28,28,0,0,0,4.67,1.72,29.5,29.5,0,0,0,7.79,1c.88,0,1.77,0,2.65-.11a33.49,33.49,0,0,0,10.65-2.77l.93-.43.72.27a30.08,30.08,0,0,0,10.11,1.75c.87,0,1.75,0,2.63-.11a34.71,34.71,0,0,0,11.47-3.1c.7-.32,1.39-.67,2.08-1.05a32.63,32.63,0,0,0,4.31,1.33,35.25,35.25,0,0,0,8.07.94c1,0,2.07,0,3.1-.13a36.88,36.88,0,0,0,15.71-4.94,31,31,0,0,0,3.15-2.13l.59.43A20.56,20.56,0,0,0,265.5,137a21.25,21.25,0,0,0,9.89-1.21,22.5,22.5,0,0,0,8.27-5.4c.17-.18.34-.35.5-.53l.26.21a20,20,0,0,0,10.05,4.26,21.14,21.14,0,0,0,2.86.19,22.3,22.3,0,0,0,7-1.14,22,22,0,0,0,8.85-5.57,21.56,21.56,0,0,0,4-5.75,26.22,26.22,0,0,0,4.11,3.53,29.38,29.38,0,0,0,10.09,4.47,33.62,33.62,0,0,0,7.65.88c1,0,2-.05,3.05-.13a35.73,35.73,0,0,0,12-3.21,32.7,32.7,0,0,0,4.35-2.43,39.44,39.44,0,0,0,6.56,1.88,46.63,46.63,0,0,0,8.93.85c1.47,0,3-.07,4.5-.2a53.06,53.06,0,0,0,13.15-2.88,46.39,46.39,0,0,0,8.15-3.8A19.64,19.64,0,0,0,411,124.58a21.82,21.82,0,0,0,4.9-.57,19.31,19.31,0,0,0,10.21-6.18,30.75,30.75,0,0,0,14.71,3.58c1,0,2,0,3.09-.13a38.39,38.39,0,0,0,12.72-3.4c.89-.41,1.77-.85,2.64-1.34.75.31,1.51.6,2.29.85a28,28,0,0,0,8.61,1.34c.83,0,1.68,0,2.53-.11a30,30,0,0,0,10.8-3,29.3,29.3,0,0,0,3.39,1,31,31,0,0,0,6.42.83l1.28,0c1.13,0,2.13,0,3.05-.12a35.35,35.35,0,0,0,9.6-2.24,34.9,34.9,0,0,0,8.16-4.51c.57.32,1.15.63,1.73.93a40.36,40.36,0,0,0,12.58,4,39.77,39.77,0,0,0,5.93.45h0c.66,0,1.32,0,2,0a40,40,0,0,0,5.51-.66A40.57,40.57,0,0,0,572.8,91.76L589.4,62.4A19.75,19.75,0,0,0,591.25,47.19Z"/><path class="cls-1" d="M131.42,72.47a21.36,21.36,0,0,0-6.11-13.27l-.23-.23-.22-.22-.23-.23c-.07-.08-.15-.15-.22-.22l-.23-.23-.22-.23-.23-.22-.22-.23-.23-.22-.22-.23-.23-.22c-.07-.08-.15-.15-.23-.23l-.22-.22-.23-.23-.22-.22,0,0a21.39,21.39,0,0,0-6.22-18.31l-.22-.23-.23-.22-.22-.23-.23-.22-.22-.23-.23-.22-.22-.23-.23-.22-.22-.23-.23-.22-.23-.23-.22-.23-.23-.22-.22-.23-.23-.22-.22-.23-.23-.22-.22-.23-.23-.22-.22-.23a21.4,21.4,0,0,0-28.49-1.68l-.18-.18a2.39,2.39,0,0,0-.22-.23l-.23-.22a2.39,2.39,0,0,0-.22-.23l-.23-.22L81.38,30c-.08-.07-.15-.15-.23-.23l-.22-.22c-.08-.07-.15-.15-.23-.23l-.22-.22-.23-.23L80,28.62a2.39,2.39,0,0,0-.22-.23l-.23-.22A21.39,21.39,0,0,0,44.9,35.46L37.37,53.9l-7.89.68A21.42,21.42,0,0,0,10,77.72a21.07,21.07,0,0,0,2.58,8.44,21.33,21.33,0,0,0-6,34.86l.22.23.23.22.22.23.23.22.23.23.22.22c.08.08.15.16.23.23s.14.15.22.22.15.16.23.23.14.15.22.22.15.16.23.23l0,.06a21.37,21.37,0,0,0,5.73,20.71l.23.23.22.22.23.23.22.22c.08.08.15.16.23.23l.23.23c.07.07.14.15.22.22l.23.23.22.22.23.23.22.22.23.23.22.22.23.23.22.22.23.23.22.22.23.23.23.23c.07.07.14.15.22.22a21.39,21.39,0,0,0,28.48,1.68c.06.06.12.13.18.18s.15.16.23.23l.22.23.23.22.22.23.23.22.22.23.23.22.22.23.23.22c.08.08.15.16.23.23s.14.15.22.22l.23.23.22.22a21.39,21.39,0,0,0,34.67-7.29l8.26-20.21,8.15-.7a21.45,21.45,0,0,0,17-31.61A21.46,21.46,0,0,0,131.42,72.47Z"/><path class="cls-2" d="M574.55,46.12A6.24,6.24,0,0,0,566.48,42a6.09,6.09,0,0,0-3.37,2.82l-3.84,6.78c0,.07-.09.14-.14.21a10.11,10.11,0,0,1,0-1.1c0-1.24.07-2.48.11-3.72,0-1.39.07-2.78.11-4.17s.08-2.79.12-4.18.07-3.07.12-4.6l.15-5.49c0-1.69.1-3.39.13-5.08a6.26,6.26,0,0,0-8.09-6.18,6,6,0,0,0-4.24,4.53,6.5,6.5,0,0,0-.18,1.64c0,1.1-.07,2.2-.1,3.29l-.09,3.37c0,1,0,1.89-.07,2.84s-.06,1.91-.08,2.86,0,1.89-.08,2.84,0,2.16-.08,3.24l0,.23a3,3,0,0,1-.13-.28l-6.21-14c-1.57-3.54-3.15-7.07-4.71-10.61a6.26,6.26,0,1,0-11.45,5.05q4.63,10.41,9.24,20.83l.14.33h-.26a19.9,19.9,0,0,0-3,0c-1,.08-2.05.19-3.06.34-.72.1-1.44.26-2.15.43A27.33,27.33,0,0,0,510,54.41,6.1,6.1,0,0,0,509,60a6.24,6.24,0,0,0,7.68,4.22A6.13,6.13,0,0,0,519.92,62c.22-.28.44-.57.67-.84a14.61,14.61,0,0,1,8.82-5A13.75,13.75,0,0,1,533.8,56a14.47,14.47,0,0,1,9.66,5.56A14.71,14.71,0,0,1,544.53,78a14.45,14.45,0,0,1-5.59,5.46,14.29,14.29,0,0,1-4.41,1.58,14.9,14.9,0,0,1-3.71.21,14.83,14.83,0,0,1-10.09-5.06,14.75,14.75,0,0,1-3.46-7.73,6,6,0,0,0-.6-1.9,6.18,6.18,0,0,0-1.37-1.81,3.94,3.94,0,0,0-.54-.54,4.67,4.67,0,0,0-2.69-1.09,6.53,6.53,0,0,0-1.25,0,6.68,6.68,0,0,0-1.46.21,6.3,6.3,0,0,0-3.6,2.72,8.06,8.06,0,0,0-1.19,2.81q-2.46,7.68-5.55,11.25T492.73,88c-1.69.14-2.6-.57-2.74-2.13a10.56,10.56,0,0,1,.24-2.76l7.94-30.93q.91-3.68-.49-5.77a6.56,6.56,0,0,0-3.74-2.76,8.47,8.47,0,0,0-4.94.19,7.74,7.74,0,0,0-4.14,3.05,19.63,19.63,0,0,0-4.29-1.57,19.93,19.93,0,0,0-6.75-.42,17.49,17.49,0,0,0-8.83,3.4,15.53,15.53,0,0,0-5.75,8.53l-5.7,21.84a30.17,30.17,0,0,1-1.64,3.42,23.5,23.5,0,0,1-3.85,5.19,16.54,16.54,0,0,1-4.32,3.16,12.07,12.07,0,0,1-4.29,1.27,6.67,6.67,0,0,1-4.82-1.1A8.61,8.61,0,0,1,432,87a18,18,0,0,1-1.2-4.72c-.21-1.68-.41-3.21-.58-4.58l8.44-14c.28-.46.59-.93.92-1.4s.65-.87.94-1.22A7.26,7.26,0,0,0,446,63.44a7.94,7.94,0,0,0,7-11.24,9.53,9.53,0,0,0-5.29-5,8.54,8.54,0,0,0-3.93-.56,14,14,0,0,0-6.22,1.33,18.56,18.56,0,0,0-4.72,3.39A29.35,29.35,0,0,0,429.06,56q-1.71,2.61-3.28,5.29A20.6,20.6,0,0,0,423.4,55,12.29,12.29,0,0,0,420,51.29a10.69,10.69,0,0,0-4.22-1.72,19.17,19.17,0,0,0-4.69-.16A13.07,13.07,0,0,0,404.34,52a11.93,11.93,0,0,0-4.41,6.57c-.54,1.81-1,3.49-1.46,5s-.85,3.11-1.25,4.69-.84,3.25-1.32,5-1,3.75-1.57,5.94a8.48,8.48,0,0,0-.16.92c-.09.27-.19.53-.26.82a24.18,24.18,0,0,1-3.48,7.39,24.47,24.47,0,0,1-5,5.25,22.84,22.84,0,0,1-6,3.3,23.47,23.47,0,0,1-6.16,1.42q-5.16.45-8.36-1.55a6.75,6.75,0,0,1-3.48-5.28,7.16,7.16,0,0,1,.25-2.67l.6-1.85a18.21,18.21,0,0,0,10.09,2,19.65,19.65,0,0,0,11.22-4.74,19.08,19.08,0,0,0,3.9-4.69,18.46,18.46,0,0,0,2.28-6,20.37,20.37,0,0,0,.31-5.22,15.15,15.15,0,0,0-1.8-6.13,14.84,14.84,0,0,0-4-4.67,16.84,16.84,0,0,0-5.87-2.86,20.93,20.93,0,0,0-7.33-.6A21.88,21.88,0,0,0,365,55.57a19.58,19.58,0,0,0-5.45,3.2,21.64,21.64,0,0,0-7.06,11.34l-4.17,16.52q-.28,1.22-.45,2.43A26.89,26.89,0,0,1,344,96.31q-3.28,4.11-6.57,4.39a2.9,2.9,0,0,1-3.36-2.83,5.77,5.77,0,0,1,.06-1.42c.09-.51.2-1.06.34-1.64l10.93-41.3v.09a20.3,20.3,0,0,0,.63-7,15.85,15.85,0,0,0-1.69-6,14.76,14.76,0,0,0-3.71-4.6,15.16,15.16,0,0,0-5.34-2.81,17.75,17.75,0,0,0-6.62-.61A26,26,0,0,0,320,35.08a20.37,20.37,0,0,0-7.49,5.84,18.5,18.5,0,0,0-4.87-4.45A12.64,12.64,0,0,0,300.83,35a13.47,13.47,0,0,0-4.47.76,16.32,16.32,0,0,0-3.4,1.67,14.56,14.56,0,0,0-2.22,1.75,5.57,5.57,0,0,0-.9,1,5.94,5.94,0,0,0-2.73-2.65,9.73,9.73,0,0,0-4.4-1.18,8.11,8.11,0,0,0-4.53,1.19,7,7,0,0,0-3,4.46L261.23,95.91c-.21.26-.41.53-.64.78a10.57,10.57,0,0,1-7,3.34l-.66.06a2,2,0,0,1-.66,0c0,.06,0-.23-.12-.89a15.3,15.3,0,0,0-.53-2.27,7.58,7.58,0,0,0,1.7-2.22,18.5,18.5,0,0,0,1.17-3c.44-1.39.85-2.87,1.22-4.45s.68-3.13.92-4.66a21.59,21.59,0,0,0,.35-3.72,13,13,0,0,0-1.64-6.43A14.6,14.6,0,0,0,251,67.68,17.32,17.32,0,0,0,244.83,65a22.6,22.6,0,0,0-7.27-.51,23.12,23.12,0,0,0-6.36,1.44A22,22,0,0,0,225.61,69a19.92,19.92,0,0,0-4.39,4.58,18.71,18.71,0,0,0-2.71,5.85L212.7,101c-.22,1-.38,2-.5,2.88a22.42,22.42,0,0,1-2.74,4.58c-2.16,2.71-4.31,4.15-6.43,4.34a2.75,2.75,0,0,1-2.23-.66,2.89,2.89,0,0,1-.92-1.91,3.61,3.61,0,0,1,.23-1.72L214,53.4a9.08,9.08,0,0,0,.08-4.59,6.79,6.79,0,0,0-1.83-3.2,6.3,6.3,0,0,0-3-1.58,6,6,0,0,0-3.47.29,7.9,7.9,0,0,0-3.2,2.45,11.5,11.5,0,0,0-2.13,4.86L194.79,74a15.26,15.26,0,0,0-5.43-3.23A15.47,15.47,0,0,0,183,70a17.23,17.23,0,0,0-4.54,1,15.74,15.74,0,0,0-4.2,2.35A15.91,15.91,0,0,0,170.9,77a15.5,15.5,0,0,0-2.18,4.87l-5.35,20.54a21,21,0,0,1-2,3.1,30.23,30.23,0,0,1-6.65,6.29,35.22,35.22,0,0,1-8,4.13,31.32,31.32,0,0,1-8.16,1.88q-8.33,0-11.94-4.13t-1.79-11.62a10.69,10.69,0,0,1,5.38-6.69,13.77,13.77,0,0,1,3.62-1.31,32.12,32.12,0,0,1,3.6-.54q4.64,2.34,8,2.06a9.45,9.45,0,0,0,5.36-2,8.58,8.58,0,0,0,2.8-4.31,9.25,9.25,0,0,0,.14-5,7.68,7.68,0,0,0-2.67-4.07,7.88,7.88,0,0,0-5.42-1.57q-4.23.36-6.6-1.94a8.6,8.6,0,0,1-2.65-5.59,11.55,11.55,0,0,1,1.84-7.81c1.48-2.15,3.79-3.35,6.92-3.62a7.28,7.28,0,0,1,6.75,3.77,7.58,7.58,0,0,0,3.12,5,7.33,7.33,0,0,0,4.79,1.24,7.15,7.15,0,0,0,4.31-2.07,6.24,6.24,0,0,0,1.8-4.93,14.36,14.36,0,0,0-1.85-6.78,16.16,16.16,0,0,0-4.65-5.14,19.84,19.84,0,0,0-6.79-3.1,24.42,24.42,0,0,0-8.27-.62,26.37,26.37,0,0,0-7.14,1.65,26,26,0,0,0-6.63,3.69,23.48,23.48,0,0,0-5.33,5.75,24,24,0,0,0-3.3,7.75l-.14.58a21.29,21.29,0,0,0-.51,6.28,15.68,15.68,0,0,0,4.54,9.92,21.6,21.6,0,0,0-8.55,4.46A22.89,22.89,0,0,0,112,93.94a27.12,27.12,0,0,0-2.63,8,32.5,32.5,0,0,0-.36,7.92,19.52,19.52,0,0,0,2.66,8.42,20.82,20.82,0,0,0,6,6.48,27.34,27.34,0,0,0,8.94,4,36.72,36.72,0,0,0,11.29,1A45.4,45.4,0,0,0,151.07,127a44.08,44.08,0,0,0,11.65-6.38c.47-.36.9-.75,1.34-1.13a13.21,13.21,0,0,0,2.78,2.9,14.13,14.13,0,0,0,4.94,2.41,16,16,0,0,0,5.76.5,19.94,19.94,0,0,0,6.38-1.68,18.35,18.35,0,0,0,5.79-4.08,15.81,15.81,0,0,0,5.79,3.57,16.6,16.6,0,0,0,7.07.9,21.2,21.2,0,0,0,7-1.92,22.92,22.92,0,0,0,6.77-4.93s0,0,0,0a14.61,14.61,0,0,0,2.19,1.79,18.52,18.52,0,0,0,6.08,2.6,21.73,21.73,0,0,0,6.94.49,23.47,23.47,0,0,0,10-3.12,18.1,18.1,0,0,0,7.07-8,21.57,21.57,0,0,0,5.69.27,24.39,24.39,0,0,0,3-.48,7.52,7.52,0,0,0,.23,4.17,6.09,6.09,0,0,0,2.18,2.84A7.2,7.2,0,0,0,263.2,119a8,8,0,0,0,3.75-.46,9.09,9.09,0,0,0,3.35-2.22,8.76,8.76,0,0,0,2.17-4l13.14-50.85a21.41,21.41,0,0,1,4.57-7.34,9.63,9.63,0,0,1,6.06-3.21,3.76,3.76,0,0,1,2.06.39,3.33,3.33,0,0,1,1.48,1.77,8.6,8.6,0,0,1,.48,3.4,21.88,21.88,0,0,1-1,5.34l-11.92,45.26a8.56,8.56,0,0,0-.2,4.79,6.08,6.08,0,0,0,2,3.09,6.56,6.56,0,0,0,3.33,1.37,8.6,8.6,0,0,0,7.39-2.62,8.78,8.78,0,0,0,2.2-4.11l12.7-49.39A18.7,18.7,0,0,1,319,51.9a9.57,9.57,0,0,1,6.1-3.36,4.28,4.28,0,0,1,3.3,1,4.68,4.68,0,0,1,1.5,3.23,7,7,0,0,1-.05,1.57c-.09.54-.19,1.1-.33,1.68l-9.39,36.16a22.13,22.13,0,0,0-.7,7.33,14.19,14.19,0,0,0,1.85,6.09,13.58,13.58,0,0,0,4,4.29,15.81,15.81,0,0,0,5.5,2.41,20.32,20.32,0,0,0,6.46.44,22.31,22.31,0,0,0,7.49-2,22,22,0,0,0,6.71-4.92c.54-.57,1.07-1.18,1.58-1.83a18.74,18.74,0,0,0,2.9,2.2,24,24,0,0,0,8,3,35,35,0,0,0,9.68.45,39.68,39.68,0,0,0,9.84-2.17,34,34,0,0,0,9.3-5,34.59,34.59,0,0,0,7.71-8.27,37.86,37.86,0,0,0,5.12-11.92,5.13,5.13,0,0,0,.1-.65,9.62,9.62,0,0,0,.55-1.67c.19-.78.34-1.41.46-1.89s.23-.93.36-1.35.25-.87.4-1.36.31-1.11.5-1.89q.78-3,1.31-5.12c.35-1.41.8-2.93,1.36-4.56v-.09A4.17,4.17,0,0,1,412,65.07a26.59,26.59,0,0,1,1.74,3.16,42.71,42.71,0,0,1,2.22,6.1L402.57,97.12c-1.28,2.06-1.63,3.86-1.05,5.38a5.72,5.72,0,0,0,2.92,3.3,6.88,6.88,0,0,0,4.67.4,6.37,6.37,0,0,0,4.15-3.38l6.88-12.5a18,18,0,0,0,7.1,10.08A17.8,17.8,0,0,0,439,103.17a24.76,24.76,0,0,0,8.27-2.22A28.45,28.45,0,0,0,455,95.66c.1-.09.19-.2.29-.29a14.5,14.5,0,0,0,12.56,5.15A16.77,16.77,0,0,0,474,98.71a19.5,19.5,0,0,0,5.37-4,8.53,8.53,0,0,0,3,2.67,15.54,15.54,0,0,0,3.76,1.43,17.55,17.55,0,0,0,3.69.48,28,28,0,0,0,2.87-.05,21.91,21.91,0,0,0,5.93-1.41,21.47,21.47,0,0,0,5.85-3.43,27.23,27.23,0,0,0,5.36-5.94c.21-.31.42-.66.63-1a26.83,26.83,0,0,0,9,7.38,27.37,27.37,0,0,0,13.66,3,25.89,25.89,0,0,0,3.62-.42,30.27,30.27,0,0,0,3.09-.76A27.18,27.18,0,0,0,556.8,81.47a7.76,7.76,0,0,1,.37-.77l10.19-18,6.57-11.63A6.18,6.18,0,0,0,574.55,46.12ZM366.62,70.32a7.46,7.46,0,0,1,2.11-3.54,5.2,5.2,0,0,1,3-1.44A3.92,3.92,0,0,1,375,66.48a5.13,5.13,0,0,1,1.46,3.28,6.57,6.57,0,0,1-.18,2.28,5.27,5.27,0,0,1-1.68,3,7.27,7.27,0,0,1-2.94,1.53,10.64,10.64,0,0,1-3.43.29,9,9,0,0,1-3.14-.77ZM188.52,93.49l-2.55,10a16.76,16.76,0,0,1-1.89,4.36,10.75,10.75,0,0,1-2.15,2.5,5.79,5.79,0,0,1-2,1.12,3.45,3.45,0,0,1-1.64.14,2.61,2.61,0,0,1-1.73-.93,3.81,3.81,0,0,1-.76-1.74,6.85,6.85,0,0,1-.08-2,11.41,11.41,0,0,1,.32-1.78l3.64-15a15,15,0,0,1,1.92-4.56,6.22,6.22,0,0,1,2.06-2,3.06,3.06,0,0,1,1.71-.44,2.79,2.79,0,0,1,.82.17,4.61,4.61,0,0,1,.77.27,3.09,3.09,0,0,1,1.35,1.3,7.4,7.4,0,0,1,.87,3A16.8,16.8,0,0,1,188.52,93.49Zm54.57-10.76c-.32,1.38-.6,2.59-.82,3.61q-.14.68-.27,1.26a6.42,6.42,0,0,0-.19,1.15,8.57,8.57,0,0,0-3.67.73,8.9,8.9,0,0,0-2.94,2.15,9.26,9.26,0,0,0-1.89,3.28,9.75,9.75,0,0,0-.47,4,6.85,6.85,0,0,0,1.46,3.75,15.33,15.33,0,0,0,2.56,2.34.26.26,0,0,0-.08.19,8.09,8.09,0,0,1-2.49,4,6.61,6.61,0,0,1-3.82,1.7,4.17,4.17,0,0,1-3.38-.8,4.76,4.76,0,0,1-1.35-2.48,8.73,8.73,0,0,1-.11-3c.14-1,.28-1.77.42-2.35.5-2.19,1.24-5,2.2-8.46s2.28-7.71,3.92-12.77a6.85,6.85,0,0,1,6.15-5.44,4.81,4.81,0,0,1,3.58,1,3.9,3.9,0,0,1,1.56,2.75A11.2,11.2,0,0,1,243.09,82.73ZM480,68.56l-2.55,10a16.85,16.85,0,0,1-1.89,4.37,10.93,10.93,0,0,1-2.15,2.5,6,6,0,0,1-2,1.12,3.64,3.64,0,0,1-1.65.14,2.66,2.66,0,0,1-1.73-.94,3.82,3.82,0,0,1-.76-1.73,6.9,6.9,0,0,1-.08-2,11.41,11.41,0,0,1,.32-1.78l3.64-15a14.69,14.69,0,0,1,1.93-4.56,6.21,6.21,0,0,1,2.05-2,3,3,0,0,1,1.71-.43,2.6,2.6,0,0,1,.82.16,4.88,4.88,0,0,1,.78.27,3.19,3.19,0,0,1,1.34,1.3,7.4,7.4,0,0,1,.87,3A16.77,16.77,0,0,1,480,68.56Z"/><path class="cls-2" d="M106.05,77.5a8,8,0,1,0-1.36-15.88l-5.85.49,4.52-11.06A8,8,0,0,0,88.6,45L81,63.64,64.53,65.05l7.56-18.48a8,8,0,1,0-14.76-6l-10.65,26L30.62,68a8,8,0,0,0,.67,15.92q.34,0,.69,0l7.93-.68L34.44,96.54,20.71,97.71a8,8,0,0,0,.67,15.92q.35,0,.69,0l5.59-.48L22.42,126a8,8,0,0,0,14.76,6l8.33-20.39L62,110.19,53.7,130.44a8,8,0,1,0,14.76,6l11.36-27.81,16.32-1.39a8,8,0,1,0-1.36-15.89l-8.18.7L92.07,78.7ZM68.75,93.6,52.29,95l5.47-13.38,16.46-1.41Z"/></g></g></svg>