<svg xmlns="http://www.w3.org/2000/svg" viewBox="0 0 176.89 176.89"><defs><style>.cls-1{fill:#a294c6;}</style></defs><g id="Capa_2" data-name="Capa 2"><g id="Capa_1-2" data-name="Capa 1"><path class="cls-1" d="M88.45,0a88.45,88.45,0,1,0,88.44,88.45A88.45,88.45,0,0,0,88.45,0ZM138,77.13c0,2.76-1.3,4.06-4.08,4a45.82,45.82,0,0,1-19.69-4.79c-.31-.16-.64-.3-1.13-.52v1.41c0,10.61.09,21.22,0,31.83-.21,16.75-12.63,31.67-29.05,35.13A37,37,0,1,1,69,71.65a51.5,51.5,0,0,1,6.8-.66,3.17,3.17,0,0,1,3.49,3.31q.08,8.85,0,17.69c0,2.06-1.41,3.26-3.61,3.35a12.66,12.66,0,1,0,12.5,16,16.59,16.59,0,0,0,.46-4q0-35.53,0-71.06c0-2,.61-3.48,2.47-4.34h19.46c1.78.78,2.44,2.12,2.52,4.08a21.47,21.47,0,0,0,20.8,20.75c2.94.13,4.05,1.28,4.05,4.18Q138,69,138,77.13Z"/></g></g></svg>