<svg xmlns="http://www.w3.org/2000/svg" viewBox="0 0 510.77 510.95"><defs><style>.cls-1{fill:#a294c6;}</style></defs><g id="Capa_2" data-name="Capa 2"><g id="Capa_1-2" data-name="Capa 1"><path class="cls-1" d="M239.3,0h31.94a28.89,28.89,0,0,0,3.84.82c39.79,3,77,14.39,111,35.28,65.95,40.61,106.58,99,120.81,175.37,1.73,9.28,2.63,18.71,3.92,28.06v31.94c-.29,1.45-.65,2.89-.87,4.36-1.68,11.32-2.72,22.79-5.09,34-23.94,112.89-123.81,197-238.88,201-67.17,2.31-127.1-17.78-177.61-62.29C22.62,390.58-6.42,317,1.18,229.89,6,174.36,28.24,125.67,65.71,84.38,105.1,41,153.82,13.9,211.74,3.86,220.87,2.27,230.11,1.27,239.3,0ZM193.47,144.94c-18.25.66-36.51,2.06-54.69,3.88-20.15,2-33.82,13.9-37.19,33.79a463.39,463.39,0,0,0-5.38,52.5,416.57,416.57,0,0,0,4.43,90c3.45,21,14.94,33.26,35.93,36.38a468,468,0,0,0,48.65,4.17c60,2.58,120,2.42,180-2.44,28.41-2.3,42-16.23,45.28-40.85,5.9-44.41,6.55-88.89,0-133.23-3.7-25-14.78-35.95-37.1-40a83.06,83.06,0,0,0-10.87-1.39q-57-2.7-114.07-5.24"/><path class="cls-1" d="M306.58,255.5l-82.81,47.7V207.81Z"/></g></g></svg>